<svg width="24" height="24" viewBox="0 0 24 24" fill="none" xmlns="http://www.w3.org/2000/svg">
<path d="M21.5998 21.5997V14.5677C21.5998 11.1117 20.8558 8.47168 16.8238 8.47168C14.8798 8.47168 13.5838 9.52768 13.0558 10.5357H13.0078V8.78368H9.19183V21.5997H13.1758V15.2397C13.1758 13.5597 13.4878 11.9517 15.5518 11.9517C17.5918 11.9517 17.6158 13.8477 17.6158 15.3357V21.5757H21.5998V21.5997Z" fill="#A4AFC1"/>
<path d="M2.7121 8.78345H6.6961V21.5994H2.7121V8.78345Z" fill="#A4AFC1"/>
<path d="M4.70384 2.3999C3.43184 2.3999 2.39984 3.4319 2.39984 4.7039C2.39984 5.9759 3.43184 7.0319 4.70384 7.0319C5.97584 7.0319 7.00784 5.9759 7.00784 4.7039C7.00784 3.4319 5.97584 2.3999 4.70384 2.3999Z" fill="#A4AFC1"/>
</svg>
