<svg width="1417" height="175" viewBox="0 0 1417 175" fill="none" xmlns="http://www.w3.org/2000/svg">
<path d="M6 161H497C510.255 161 521 150.255 521 137V30C521 16.7452 531.745 6 545 6H547C560.255 6 571 16.7452 571 30V137C571 150.255 581.745 161 595 161H1139C1152.25 161 1163 150.255 1163 137V30C1163 16.7452 1173.75 6 1187 6H1189C1202.25 6 1213 16.7452 1213 30V137C1213 150.255 1223.75 161 1237 161H1411" stroke="black" stroke-opacity="0.1" stroke-width="12" stroke-linecap="round" stroke-linejoin="round"/>
<path d="M67 149L79 161L67 173" stroke="#484A4A" stroke-width="4" stroke-linecap="round" stroke-linejoin="round"/>
<path d="M32 161H79" stroke="#484A4A" stroke-width="4" stroke-linecap="round" stroke-linejoin="round"/>
<path d="M510 94L522 82L534 94" stroke="#484A4A" stroke-width="4" stroke-linecap="round" stroke-linejoin="round"/>
<path d="M522 122V82" stroke="#484A4A" stroke-width="4" stroke-linecap="round" stroke-linejoin="round"/>
<path d="M1151 94L1163 82L1175 94" stroke="#484A4A" stroke-width="4" stroke-linecap="round" stroke-linejoin="round"/>
<path d="M1163 122V82" stroke="#484A4A" stroke-width="4" stroke-linecap="round" stroke-linejoin="round"/>
<path d="M560 86L572 98L584 86" stroke="#484A4A" stroke-width="4" stroke-linecap="round" stroke-linejoin="round"/>
<path d="M572 58V98" stroke="#484A4A" stroke-width="4" stroke-linecap="round" stroke-linejoin="round"/>
<path d="M1201 86L1213 98L1225 86" stroke="#484A4A" stroke-width="4" stroke-linecap="round" stroke-linejoin="round"/>
<path d="M1213 58V98" stroke="#484A4A" stroke-width="4" stroke-linecap="round" stroke-linejoin="round"/>
<path d="M393 149L405 161L393 173" stroke="#484A4A" stroke-width="4" stroke-linecap="round" stroke-linejoin="round"/>
<path d="M358 161H405" stroke="#484A4A" stroke-width="4" stroke-linecap="round" stroke-linejoin="round"/>
<path d="M719 149L731 161L719 173" stroke="#484A4A" stroke-width="4" stroke-linecap="round" stroke-linejoin="round"/>
<path d="M684 161H731" stroke="#484A4A" stroke-width="4" stroke-linecap="round" stroke-linejoin="round"/>
<path d="M1045 149L1057 161L1045 173" stroke="#484A4A" stroke-width="4" stroke-linecap="round" stroke-linejoin="round"/>
<path d="M1010 161H1057" stroke="#484A4A" stroke-width="4" stroke-linecap="round" stroke-linejoin="round"/>
<path d="M1371 149L1383 161L1371 173" stroke="#484A4A" stroke-width="4" stroke-linecap="round" stroke-linejoin="round"/>
<path d="M1336 161H1383" stroke="#484A4A" stroke-width="4" stroke-linecap="round" stroke-linejoin="round"/>
</svg>
