<svg width="24" height="24" viewBox="0 0 24 24" fill="none" xmlns="http://www.w3.org/2000/svg">
<path d="M21.576 6.04844C20.856 6.36044 20.112 6.57644 19.32 6.67244C20.136 6.19244 20.76 5.42444 21.048 4.48844C20.28 4.94444 19.44 5.25644 18.552 5.44844C17.832 4.68044 16.8 4.20044 15.672 4.20044C13.488 4.20044 11.736 5.97644 11.736 8.13644C11.736 8.44844 11.76 8.73644 11.832 9.02444C8.56804 8.88044 5.68804 7.29644 3.74404 4.92044C2.35204 7.41644 3.91204 9.48044 4.94404 10.1764C4.32004 10.1764 3.69604 9.98444 3.16804 9.69644C3.16804 11.6404 4.53604 13.2484 6.31204 13.6084C5.92804 13.7284 5.06404 13.8004 4.53604 13.6804C5.04004 15.2404 6.50404 16.3924 8.20804 16.4164C6.86404 17.4724 4.89604 18.3124 2.37604 18.0484C4.12804 19.1764 6.19204 19.8244 8.42404 19.8244C15.672 19.8244 19.608 13.8244 19.608 8.64044C19.608 8.47244 19.608 8.30444 19.584 8.13644C20.4 7.53644 21.072 6.84044 21.576 6.04844Z" fill="#A4AFC1"/>
</svg>
