<svg width="128" height="128" viewBox="0 0 128 128" fill="none" xmlns="http://www.w3.org/2000/svg">
<path d="M113.184 98.215C113.184 73.6212 125.924 56.7323 125.924 44.8816C125.924 33.031 119.111 8.14209 64.5938 8.14209C10.0764 8.14209 2.07288 41.6248 2.07288 54.6594C2.07288 115.698 113.184 141.771 113.184 98.215Z" fill="#EFEFEF"/>
<path d="M94.2222 46.2223C91.2818 46.2223 88.8889 43.8294 88.8889 40.889C88.8889 37.9486 91.2818 35.5557 94.2222 35.5557C97.1627 35.5557 99.5556 37.9486 99.5556 40.889C99.5556 43.8294 97.1627 46.2223 94.2222 46.2223ZM94.2222 39.1112C93.2445 39.1112 92.4445 39.9077 92.4445 40.889C92.4445 41.8703 93.2445 42.6668 94.2222 42.6668C95.2 42.6668 96 41.8703 96 40.889C96 39.9077 95.2 39.1112 94.2222 39.1112Z" fill="#A4AFC1"/>
<path d="M75.5556 89.7779H24V77.3334C24 71.4419 28.7751 66.6667 34.6667 66.6667H64.8889C70.7804 66.6667 75.5556 71.4419 75.5556 77.3334V89.7779Z" fill="#F3F3F1"/>
<path d="M49.7778 54.2223C57.1416 54.2223 63.1111 48.2528 63.1111 40.889C63.1111 33.5252 57.1416 27.5557 49.7778 27.5557C42.414 27.5557 36.4445 33.5252 36.4445 40.889C36.4445 48.2528 42.414 54.2223 49.7778 54.2223Z" fill="#F3F3F1"/>
<path d="M63.0755 40.1779C57.0311 41.1023 53.3333 34.6668 53.3333 34.6668C47.0755 40.4979 39.1466 40.3557 36.48 40.1068C36.8711 33.1023 42.6666 27.5557 49.7778 27.5557C56.8889 27.5557 62.72 33.1379 63.0755 40.1779Z" fill="#E8184A"/>
<path d="M83.5555 104C94.8467 104 104 94.8467 104 83.5555C104 72.2644 94.8467 63.1111 83.5555 63.1111C72.2644 63.1111 63.1111 72.2644 63.1111 83.5555C63.1111 94.8467 72.2644 104 83.5555 104Z" fill="#E8184A"/>
<path d="M71.1111 83.5555C71.1111 73.6355 78.1795 65.3689 87.5555 63.5093C86.2613 63.2533 84.9244 63.1111 83.5555 63.1111C72.2631 63.1111 63.1111 72.2631 63.1111 83.5555C63.1111 94.848 72.2631 104 83.5555 104C84.9244 104 86.2613 103.861 87.5555 103.602C78.1795 101.742 71.1111 93.4755 71.1111 83.5555Z" fill="black" fill-opacity="0.2"/>
<path d="M42.6667 66.6667H34.6667C28.7751 66.6667 24 71.4419 24 77.3334V89.7779H32V77.3334C32 71.4419 36.7751 66.6667 42.6667 66.6667Z" fill="#D5DBE1"/>
<path d="M44.4445 40.889C44.4445 34.9299 48.3805 29.9414 53.7778 28.2348C52.5085 27.833 51.1822 27.5557 49.7778 27.5557C42.4142 27.5557 36.4445 33.5254 36.4445 40.889C36.4445 48.2526 42.4142 54.2223 49.7778 54.2223C51.1822 54.2223 52.5085 53.945 53.7778 53.5432C48.3805 51.8366 44.4445 46.8481 44.4445 40.889Z" fill="#D5DBE1"/>
<path d="M53.7706 28.2277C52.5049 27.8259 51.1786 27.5557 49.7778 27.5557C42.6666 27.5557 36.8711 33.1023 36.48 40.1068C37.9555 40.2454 41.0631 40.3094 44.5902 39.385C45.1804 34.0943 48.8391 29.7886 53.7706 28.2277Z" fill="#BA133B"/>
<path d="M61.8595 42.937C57.7315 42.937 54.6738 40.4694 52.8747 38.4748C46.1724 43.2286 38.5955 42.9903 36.2275 42.7628L36.7289 37.4543C38.8053 37.6499 45.9804 37.8774 51.5129 32.7183C52.1102 32.1637 52.9244 31.9112 53.728 32.0321C54.5351 32.153 55.2391 32.633 55.6444 33.3406C55.6658 33.3761 58.5315 38.1441 62.6738 37.5432L63.4809 42.8126C62.9226 42.8979 62.3822 42.937 61.8595 42.937Z" fill="black"/>
<path d="M49.7778 56.8889C40.9564 56.8889 33.7778 49.7102 33.7778 40.8889C33.7778 32.0676 40.9564 24.8889 49.7778 24.8889C58.5991 24.8889 65.7778 32.0676 65.7778 40.8889C65.7778 49.7102 58.5991 56.8889 49.7778 56.8889ZM49.7778 30.2222C43.8969 30.2222 39.1111 35.008 39.1111 40.8889C39.1111 46.7698 43.8969 51.5556 49.7778 51.5556C55.6587 51.5556 60.4444 46.7698 60.4444 40.8889C60.4444 35.008 55.6587 30.2222 49.7778 30.2222Z" fill="black"/>
<path d="M83.5556 106.667C70.8125 106.667 60.4445 96.2986 60.4445 83.5554C60.4445 70.8123 70.8125 60.4443 83.5556 60.4443C96.2987 60.4443 106.667 70.8123 106.667 83.5554C106.667 96.2986 96.2987 106.667 83.5556 106.667ZM83.5556 65.7777C73.7529 65.7777 65.7778 73.7528 65.7778 83.5554C65.7778 93.3581 73.7529 101.333 83.5556 101.333C93.3582 101.333 101.333 93.3581 101.333 83.5554C101.333 73.7528 93.3582 65.7777 83.5556 65.7777Z" fill="black"/>
<path d="M75.4308 87.8916L87.8759 75.4465L91.6471 79.2178L79.202 91.6628L75.4308 87.8916Z" fill="black"/>
<path d="M75.4308 79.2195L79.202 75.4482L91.6471 87.8933L87.8759 91.6646L75.4308 79.2195Z" fill="black"/>
<path d="M53.3333 92.4444H24C22.528 92.4444 21.3333 91.2498 21.3333 89.7778V77.3333C21.3333 69.9804 27.3173 64 34.6666 64H56.96V69.3333H34.6666C30.2578 69.3333 26.6666 72.9209 26.6666 77.3333V87.1111H53.3333V92.4444Z" fill="black"/>
</svg>
