<svg width="128" height="128" viewBox="0 0 128 128" fill="none" xmlns="http://www.w3.org/2000/svg">
<path d="M29.7849 14.816C54.3787 14.816 71.2676 2.07642 83.1183 2.07642C94.9689 2.07642 119.858 8.88886 119.858 63.4062C119.858 117.924 86.3751 125.924 73.3405 125.924C12.3023 125.927 -13.7706 14.816 29.7849 14.816Z" fill="#EFEFEF"/>
<path d="M95.6545 12.8584L98.1687 10.3442L103.197 15.3726L100.683 17.8867L95.6545 12.8584Z" fill="#A4AFC1"/>
<path d="M110.109 27.3154L112.623 24.8013L117.652 29.8296L115.137 32.3437L110.109 27.3154Z" fill="#A4AFC1"/>
<path d="M109.48 15.374L114.509 10.3457L117.023 12.8599L111.995 17.8882L109.48 15.374Z" fill="#A4AFC1"/>
<path d="M75.5556 89.7776H24V77.3332C24 71.4416 28.7751 66.6665 34.6667 66.6665H64.8889C70.7804 66.6665 75.5556 71.4416 75.5556 77.3332V89.7776Z" fill="#F3F3F1"/>
<path d="M49.7778 54.2223C57.1416 54.2223 63.1111 48.2528 63.1111 40.889C63.1111 33.5252 57.1416 27.5557 49.7778 27.5557C42.414 27.5557 36.4445 33.5252 36.4445 40.889C36.4445 48.2528 42.414 54.2223 49.7778 54.2223Z" fill="#F3F3F1"/>
<path d="M63.0755 40.1779C57.0311 41.1023 53.3333 34.6668 53.3333 34.6668C47.0755 40.4979 39.1466 40.3557 36.48 40.1068C36.8711 33.1023 42.6666 27.5557 49.7778 27.5557C56.8889 27.5557 62.72 33.1379 63.0755 40.1779Z" fill="#2FDF84"/>
<path d="M83.5555 104C94.8467 104 104 94.8467 104 83.5555C104 72.2644 94.8467 63.1111 83.5555 63.1111C72.2644 63.1111 63.1111 72.2644 63.1111 83.5555C63.1111 94.8467 72.2644 104 83.5555 104Z" fill="#2FDF84"/>
<path d="M71.1111 83.5555C71.1111 73.6355 78.1795 65.3689 87.5555 63.5093C86.2613 63.2533 84.9244 63.1111 83.5555 63.1111C72.2631 63.1111 63.1111 72.2631 63.1111 83.5555C63.1111 94.848 72.2631 104 83.5555 104C84.9244 104 86.2613 103.861 87.5555 103.602C78.1795 101.742 71.1111 93.4755 71.1111 83.5555Z" fill="#00B871"/>
<path d="M42.6667 66.6665H34.6667C28.7751 66.6665 24 71.4416 24 77.3332V89.7776H32V77.3332C32 71.4416 36.7751 66.6665 42.6667 66.6665Z" fill="#D5DBE1"/>
<path d="M44.4445 40.889C44.4445 34.9299 48.3805 29.9414 53.7778 28.2348C52.5085 27.833 51.1822 27.5557 49.7778 27.5557C42.4142 27.5557 36.4445 33.5254 36.4445 40.889C36.4445 48.2526 42.4142 54.2223 49.7778 54.2223C51.1822 54.2223 52.5085 53.945 53.7778 53.5432C48.3805 51.8366 44.4445 46.8481 44.4445 40.889Z" fill="#D5DBE1"/>
<path d="M53.7706 28.2277C52.5049 27.8259 51.1786 27.5557 49.7778 27.5557C42.6666 27.5557 36.8711 33.1023 36.48 40.1068C37.9555 40.2454 41.0631 40.3094 44.5902 39.385C45.1804 34.0943 48.8391 29.7886 53.7706 28.2277Z" fill="#00B871"/>
<path d="M61.8595 42.937C57.7315 42.937 54.6737 40.4694 52.8746 38.4748C46.1653 43.2321 38.5742 42.9797 36.2311 42.7628L36.7289 37.4543C38.7946 37.6499 45.9804 37.881 51.5164 32.7183C52.1102 32.1637 52.9209 31.9112 53.7315 32.0321C54.5351 32.153 55.2391 32.633 55.648 33.3406C55.6693 33.3761 58.5351 38.1441 62.6773 37.5432L63.4844 42.8126C62.9226 42.8979 62.3822 42.937 61.8595 42.937Z" fill="black"/>
<path d="M49.7778 56.8889C40.9564 56.8889 33.7778 49.7102 33.7778 40.8889C33.7778 32.0676 40.9564 24.8889 49.7778 24.8889C58.5991 24.8889 65.7778 32.0676 65.7778 40.8889C65.7778 49.7102 58.5991 56.8889 49.7778 56.8889ZM49.7778 30.2222C43.8969 30.2222 39.1111 35.008 39.1111 40.8889C39.1111 46.7698 43.8969 51.5556 49.7778 51.5556C55.6587 51.5556 60.4444 46.7698 60.4444 40.8889C60.4444 35.008 55.6587 30.2222 49.7778 30.2222Z" fill="black"/>
<path d="M83.5556 106.667C70.8125 106.667 60.4445 96.2986 60.4445 83.5554C60.4445 70.8123 70.8125 60.4443 83.5556 60.4443C96.2987 60.4443 106.667 70.8123 106.667 83.5554C106.667 96.2986 96.2987 106.667 83.5556 106.667ZM83.5556 65.7777C73.7529 65.7777 65.7778 73.7528 65.7778 83.5554C65.7778 93.3581 73.7529 101.333 83.5556 101.333C93.3582 101.333 101.333 93.3581 101.333 83.5554C101.333 73.7528 93.3582 65.7777 83.5556 65.7777Z" fill="black"/>
<path d="M80 92.4444C79.2925 92.4444 78.6133 92.1635 78.1156 91.6622L71.0045 84.5511L74.7769 80.7786L79.872 85.8737L90.4391 73.7991L94.4533 77.3084L82.0089 91.5306C81.5218 92.0853 80.8285 92.416 80.0889 92.4409C80.0605 92.4444 80.0285 92.4444 80 92.4444Z" fill="black"/>
<path d="M53.3333 92.4444H24C22.528 92.4444 21.3333 91.2498 21.3333 89.7778V77.3333C21.3333 69.9804 27.3138 64 34.6666 64H56.96V69.3333H34.6666C30.2542 69.3333 26.6666 72.9209 26.6666 77.3333V87.1111H53.3333V92.4444Z" fill="black"/>
</svg>
