<svg width="128" height="128" viewBox="0 0 128 128" fill="none" xmlns="http://www.w3.org/2000/svg">
<path d="M29.7849 113.184C54.3786 113.184 71.2675 125.923 83.1182 125.923C94.9689 125.923 119.858 119.111 119.858 64.5936C119.858 10.0763 86.3751 2.07275 73.3404 2.07275C12.3022 2.07275 -13.7707 113.184 29.7849 113.184Z" fill="#EFEFEF"/>
<path d="M26.2222 15.1113H29.7777V22.2224H26.2222V15.1113Z" fill="#A4AFC1"/>
<path d="M14.6665 25.7778H21.7776V29.3334H14.6665V25.7778Z" fill="#A4AFC1"/>
<path d="M24 63.1113V93.3336H33.7778L40.8889 67.0722C40.8889 67.0722 35.7049 63.1113 24 63.1113Z" fill="#2FDF84"/>
<path d="M95.1112 81.7779C90.4961 81.7779 85.1379 84.0107 80.0001 85.5859V84.0534C80.0001 80.6756 77.6179 77.7601 74.3112 77.0845L40.0712 70.0801L34.7734 89.3512C41.5645 92.5512 59.0579 100.445 67.5557 100.445C78.2223 100.445 104 86.2223 104 86.2223C104 86.2223 102.222 81.7779 95.1112 81.7779Z" fill="#2FDF84"/>
<path d="M104 64.4444V34.2222H94.2224L87.1113 60.4835C87.1113 60.4835 92.2953 64.4444 104 64.4444Z" fill="#F3F3F1"/>
<path d="M32.8889 45.778C37.504 45.778 42.8622 43.5451 48 41.97V43.5024C48 46.8802 50.3822 49.7958 53.6889 50.4713L87.9289 57.4758L93.2267 38.2047C86.4356 35.0047 68.9422 27.1113 60.4444 27.1113C49.7778 27.1113 24 41.3336 24 41.3336C24 41.3336 25.7778 45.778 32.8889 45.778Z" fill="#F3F3F1"/>
<path d="M24 63.1113V93.3336H32V63.8224C29.7742 63.4064 27.1396 63.1113 24 63.1113Z" fill="#00B871"/>
<path d="M88 84.0534V85.5858C91.6196 84.4765 95.3422 83.0543 98.8409 82.3041C97.792 81.9983 96.5902 81.7778 95.1111 81.7778C92.8533 81.7778 90.4142 82.3147 87.9111 83.0472C87.9609 83.3778 88 83.712 88 84.0534Z" fill="#00B871"/>
<path d="M42.7734 89.3512L47.6445 71.6303L40.0712 70.0801L34.7734 89.3512C41.5645 92.5512 59.0579 100.445 67.5557 100.445C68.6721 100.445 69.9841 100.26 71.385 99.9787C62.2437 98.2614 48.5903 92.0925 42.7734 89.3512Z" fill="#00B871"/>
<path d="M95.1113 60.4835L102.222 34.2222H94.2224L87.1113 60.4835C87.1113 60.4835 92.2953 64.4444 104 64.4444V63.7333C97.9238 62.5955 95.1113 60.4835 95.1113 60.4835Z" fill="#D5DBE1"/>
<path d="M32 41.3336C32 41.3336 52.6329 29.9629 64.6151 27.5771C63.0827 27.2891 61.664 27.1113 60.4444 27.1113C49.7778 27.1113 24 41.3336 24 41.3336C24 41.3336 25.7778 45.778 32.8889 45.778C34.2542 45.778 35.6871 45.5682 37.1591 45.2518C33.1627 44.0927 32 41.3336 32 41.3336Z" fill="#D5DBE1"/>
<path d="M61.6889 50.4711C58.3822 49.7955 56 46.8799 56 43.5022V41.9697C53.376 42.7733 50.6986 43.7475 48.0889 44.5084C48.5084 47.4417 50.7164 49.8631 53.6889 50.4711L87.9289 57.4755L88.3555 55.9253L61.6889 50.4711Z" fill="#D5DBE1"/>
<path d="M104 67.5556C91.5379 67.5556 85.7317 63.2285 85.4935 63.0436C84.633 62.3858 84.2526 61.2729 84.537 60.2276L91.6481 33.9662C91.9646 32.8071 93.017 32 94.2223 32H104C105.472 32 106.667 33.1947 106.667 34.6667V64.8889C106.667 66.3609 105.472 67.5556 104 67.5556ZM90.2223 59.6302C92.0819 60.5084 95.7192 61.8169 101.333 62.144V37.3333H96.2632L90.2223 59.6302Z" fill="black"/>
<path d="M32.889 48.8887C24.0748 48.8887 21.625 43.0184 21.5254 42.766C21.0241 41.5145 21.5326 40.0922 22.713 39.4416C23.7868 38.8478 49.2197 24.8887 60.4446 24.8887C69.0099 24.8887 85.3726 31.9998 94.3646 36.2344L92.089 41.0593C77.4792 34.1722 65.9414 30.222 60.4446 30.222C53.2339 30.222 36.8641 38.0087 28.2881 42.5029C29.2766 43.0682 30.7486 43.5553 32.889 43.5553C36.0108 43.5553 39.8686 42.2718 43.6019 41.0238C47.737 39.6442 52.0143 38.222 56.0001 38.222C63.4952 38.222 73.3832 41.7882 73.7992 41.9376L71.9788 46.9509C71.8863 46.9153 62.5494 43.5553 56.0001 43.5553C52.8783 43.5553 49.0206 44.8389 45.2872 46.0869C41.1521 47.4664 36.8783 48.8887 32.889 48.8887Z" fill="black"/>
<path d="M87.3957 60.5298L53.1557 53.5253C48.6259 52.5973 45.3335 48.5689 45.3335 43.9467V42.3467H50.6668V43.9467C50.6668 46.048 52.1637 47.8791 54.2224 48.3058L88.4624 55.3102L87.3957 60.5298Z" fill="black"/>
<path d="M33.7779 95.9999H24.0002C22.5282 95.9999 21.3335 94.8052 21.3335 93.3332V63.111C21.3335 61.639 22.5282 60.4443 24.0002 60.4443C36.4624 60.4443 42.2686 64.7714 42.5068 64.9563C43.3673 65.6141 43.7477 66.727 43.4633 67.7723L36.3522 94.0337C36.0357 95.1928 34.9833 95.9999 33.7779 95.9999ZM26.6668 90.6666H31.7371L37.7744 68.3697C35.9148 67.4914 32.2775 66.183 26.6633 65.8559V90.6666H26.6668Z" fill="black"/>
<path d="M67.5555 103.111C58.9902 103.111 42.6275 96.0001 33.6355 91.7654L35.9111 86.9405C50.5244 93.8312 62.0586 97.7814 67.5555 97.7814C74.7662 97.7814 91.1359 89.9948 99.7119 85.5005C98.7235 84.9352 97.2515 84.4481 95.1111 84.4481C91.9893 84.4481 88.1315 85.7316 84.3982 86.9796C80.2631 88.3592 75.9857 89.7814 71.9999 89.7814C64.5048 89.7814 54.6168 86.2152 54.2008 86.0659L56.0213 81.0525C56.1137 81.0881 65.4506 84.4481 71.9999 84.4481C75.1217 84.4481 78.9795 83.1645 82.7128 81.9165C86.8479 80.537 91.1253 79.1147 95.1111 79.1147C103.925 79.1147 106.375 84.985 106.475 85.2374C106.976 86.489 106.467 87.9112 105.287 88.5619C104.213 89.1521 78.7804 103.111 67.5555 103.111Z" fill="black"/>
<path d="M82.6668 85.6533H77.3335V84.0533C77.3335 81.952 75.8366 80.1209 73.7779 79.6942L64.1033 77.7031L65.1806 72.48L74.8517 74.4711C79.3779 75.3991 82.6704 79.4275 82.6704 84.0498V85.6533H82.6668Z" fill="black"/>
<path d="M39.5674 72.7209L40.6348 67.4908L58.2731 71.0903L57.2057 76.3204L39.5674 72.7209Z" fill="black"/>
</svg>
