<svg width="128" height="128" viewBox="0 0 128 128" fill="none" xmlns="http://www.w3.org/2000/svg">
<path d="M29.7849 14.8162C54.3786 14.8162 71.2675 2.07666 83.1182 2.07666C94.9689 2.07666 119.858 8.88911 119.858 63.4064C119.858 117.924 86.3751 125.924 73.3404 125.924C12.3022 125.927 -13.7707 14.8162 29.7849 14.8162Z" fill="#EFEFEF"/>
<path d="M95.6545 27.0771L98.1687 24.563L103.197 29.5913L100.683 32.1055L95.6545 27.0771Z" fill="#A4AFC1"/>
<path d="M110.109 41.5342L112.623 39.02L117.651 44.0483L115.137 46.5625L110.109 41.5342Z" fill="#A4AFC1"/>
<path d="M109.483 29.5903L114.511 24.562L117.025 27.0762L111.997 32.1045L109.483 29.5903Z" fill="#A4AFC1"/>
<path d="M56.8889 89.7778C75.0529 89.7778 89.7778 75.0529 89.7778 56.8889C89.7778 38.7249 75.0529 24 56.8889 24C38.7249 24 24 38.7249 24 56.8889C24 75.0529 38.7249 89.7778 56.8889 89.7778Z" fill="#F3F3F1"/>
<path d="M88.8888 82.6667C91.3434 82.6667 93.3332 80.6769 93.3332 78.2223C93.3332 75.7677 91.3434 73.7778 88.8888 73.7778C86.4342 73.7778 84.4443 75.7677 84.4443 78.2223C84.4443 80.6769 86.4342 82.6667 88.8888 82.6667Z" fill="#F3F3F1"/>
<path d="M54.72 37.7243V40.8176C54.72 46.2576 50.9156 50.9154 45.6178 52.0532C43.5556 52.4798 41.7778 53.6176 40.4978 55.1465C39.2178 56.7109 38.5067 58.6309 38.4711 60.7643C38.4356 63.1109 37.4756 65.2087 35.9467 66.7376C34.3822 68.2665 32.2844 69.2265 29.9022 69.2265H26.4178C24.8533 65.4221 24 61.2621 24 56.8887C24 41.6709 34.3467 28.8354 48.3911 25.1021C52.3378 28.0532 54.72 32.7465 54.72 37.7243Z" fill="#2FDF84"/>
<path d="M88.2489 46.8979L80.7822 47.8223C80.32 47.8579 79.8933 47.8934 79.4666 47.8934C75.7689 47.8934 72.32 45.9379 70.3644 42.7379C67.3422 37.689 66.5955 31.609 68.2311 25.9912C77.7244 29.4757 85.1555 37.2268 88.2489 46.8979Z" fill="#2FDF84"/>
<path d="M97.7779 89.9999V85.5554C97.7779 81.6266 94.5956 78.4443 90.6667 78.4443H81.7779C77.849 78.4443 74.6667 81.6266 74.6667 85.5554V89.9999H97.7779Z" fill="#2FDF84"/>
<path d="M89.7778 65.1109C89.7778 64.4354 89.9521 63.8132 90.2223 63.2407C89.5112 61.7296 88.0001 60.6665 86.2223 60.6665C83.7689 60.6665 81.7778 62.6576 81.7778 65.1109C81.7778 67.5643 83.7689 69.5554 86.2223 69.5554C88.0001 69.5554 89.5112 68.4923 90.2223 66.9812C89.9521 66.4087 89.7778 65.7865 89.7778 65.1109Z" fill="#00B871"/>
<path d="M89.7779 78.4443H81.7779C77.849 78.4443 74.6667 81.6266 74.6667 85.5554V89.9999H82.6667V85.5554C82.6667 81.6266 85.849 78.4443 89.7779 78.4443Z" fill="#00B871"/>
<path d="M86.2223 72.2222C82.3005 72.2222 79.1112 69.0329 79.1112 65.1111C79.1112 61.1893 82.3005 58 86.2223 58C90.1441 58 93.3334 61.1893 93.3334 65.1111C93.3334 69.0329 90.1441 72.2222 86.2223 72.2222ZM86.2223 63.3333C85.241 63.3333 84.4445 64.1298 84.4445 65.1111C84.4445 66.0924 85.241 66.8889 86.2223 66.8889C87.2037 66.8889 88.0001 66.0924 88.0001 65.1111C88.0001 64.1298 87.2037 63.3333 86.2223 63.3333Z" fill="black"/>
<path d="M100.444 90.0001H95.1111V85.5556C95.1111 83.1058 93.1164 81.1112 90.6667 81.1112H81.7778C79.328 81.1112 77.3333 83.1058 77.3333 85.5556V90.0001H72V85.5556C72 80.1618 76.384 75.7778 81.7778 75.7778H90.6667C96.0604 75.7778 100.444 80.1618 100.444 85.5556V90.0001Z" fill="black"/>
<path d="M32 56.8889C32 40.0818 44.6151 26.2436 60.8889 24.2667C59.5733 24.1067 58.2471 24 56.8889 24C38.7236 24 24 38.7236 24 56.8889C24 75.0542 38.7236 89.7778 56.8889 89.7778C58.2471 89.7778 59.5733 89.6711 60.8889 89.5111C44.6151 87.5342 32 73.696 32 56.8889Z" fill="#D5DBE1"/>
<path d="M32 56.8887C32 43.8221 39.6373 32.5332 50.6809 27.2318C49.9911 26.4567 49.2338 25.7314 48.3911 25.1021C34.3467 28.8354 24 41.6709 24 56.8887C24 61.2621 24.8533 65.4221 26.4178 69.2265H29.9022C31.4204 69.2265 32.8036 68.8034 34.0267 68.1243C32.7324 64.6185 32 60.8496 32 56.8887Z" fill="#00B871"/>
<path d="M78.3644 42.7379C76.0142 38.8125 75.0613 34.2685 75.5093 29.7992C73.2622 28.249 70.8337 26.9477 68.2311 25.9912C66.5955 31.609 67.3422 37.689 70.3644 42.7379C72.32 45.9379 75.7689 47.8934 79.4666 47.8934C79.8933 47.8934 80.32 47.8579 80.7822 47.8223L84.3697 47.3779C81.9164 46.617 79.7546 45.0134 78.3644 42.7379Z" fill="#00B871"/>
<path d="M29.9022 71.8933H26.4177V66.56H29.9022C33.1626 66.56 35.7546 63.9964 35.8044 60.7218C35.8933 55.1929 39.7084 50.5564 45.0737 49.44C49.8737 48.4124 51.4275 44.4302 51.9288 42.1476C53.1342 36.6329 50.9724 30.3609 46.7946 27.2356L49.9875 22.9653C55.8542 27.3529 58.7982 35.712 57.1377 43.2889C55.8222 49.3013 51.8293 53.4471 46.1759 54.6596C43.7795 55.1573 41.1946 57.2907 41.1377 60.8071C41.0453 66.9191 36.0035 71.8933 29.9022 71.8933Z" fill="black"/>
<path d="M79.7831 50.5207C75.4169 50.5207 71.7583 48.7749 69.0418 45.4327C64.9671 40.4158 63.6125 32.3021 65.6711 25.2407L70.7876 26.7341C69.248 32.0141 70.2578 38.4674 73.184 42.0656C75.0365 44.3554 77.5254 45.3865 80.5725 45.1589L87.9183 44.2487L88.5725 49.5394L81.1023 50.4638C80.6614 50.5029 80.2205 50.5207 79.7831 50.5207Z" fill="black"/>
<path d="M56.8888 92.4446C37.2835 92.4446 21.3333 76.4944 21.3333 56.8891C21.3333 37.2837 37.2835 21.3335 56.8888 21.3335C74.4355 21.3335 89.1946 33.8775 91.9821 51.1682L86.7199 52.0144C84.3484 37.3264 71.8008 26.6668 56.8888 26.6668C40.2239 26.6668 26.6666 40.2242 26.6666 56.8891C26.6666 73.5539 40.2239 87.1113 56.8888 87.1113C59.1715 87.1113 61.3617 86.8659 63.5839 86.3575L64.7715 91.5593C62.1866 92.1459 59.5377 92.4446 56.8888 92.4446Z" fill="black"/>
</svg>
