<svg width="128" height="128" viewBox="0 0 128 128" fill="none" xmlns="http://www.w3.org/2000/svg">
<path d="M97.4828 13.9163C72.8961 14.375 55.769 1.95185 43.9219 2.17585C32.0748 2.39985 7.31387 9.67451 8.33431 64.1847C9.35475 118.695 42.9796 126.066 56.0143 125.824C117.038 124.683 141.031 13.1021 97.4828 13.9163Z" fill="#EFEFEF"/>
<path d="M19.776 28.6792H23.3316V35.7903H19.776V28.6792Z" fill="#A4AFC1"/>
<path d="M19.776 49.1235H23.3316V56.2346H19.776V49.1235Z" fill="#A4AFC1"/>
<path d="M7.33154 40.2349H14.4427V43.7904H7.33154V40.2349Z" fill="#A4AFC1"/>
<path d="M106.666 88.6437C103.726 88.6437 101.333 86.2508 101.333 83.3104C101.333 80.3699 103.726 77.9771 106.666 77.9771C109.607 77.9771 112 80.3699 112 83.3104C112 86.2508 109.607 88.6437 106.666 88.6437ZM106.666 81.5326C105.685 81.5326 104.889 82.3291 104.889 83.3104C104.889 84.2917 105.685 85.0882 106.666 85.0882C107.648 85.0882 108.444 84.2917 108.444 83.3104C108.444 82.3291 107.648 81.5326 106.666 81.5326Z" fill="#A4AFC1"/>
<path d="M84.8711 52.8746C85.1769 43.3102 104 24.1777 104 24.1777C64 24.1777 58.3467 41.568 58.3467 41.568C55.0116 32.8711 60.5191 27.6551 60.5191 27.6551C60.5191 27.6551 46.7698 27.7653 37.9093 36.5617C28.9245 45.4791 32.6933 58.9582 32.6933 58.9582C32.6933 58.9582 37.216 72.5795 51.6302 79.3813C69.9698 88.0355 86.6062 81.568 86.6062 81.568C102.258 74.6133 103.996 48.5262 103.996 48.5262C98.6382 53.7422 84.8711 52.8746 84.8711 52.8746Z" fill="#2FDF84"/>
<path d="M67.2355 42.4568C67.2355 42.4568 71.9786 28.1848 102.709 25.5288C103.495 24.6933 104 24.1777 104 24.1777C86.823 24.1777 76.0213 27.3884 69.2515 31.0471C67.687 31.8933 66.5564 33.376 66.3004 35.136C66.0053 37.1662 66.151 39.6266 67.2355 42.4568Z" fill="#00B871"/>
<path d="M98.6666 53.7424C101.49 53.5966 103.797 51.3459 104 48.5264C101.643 50.8197 97.6603 51.9361 93.9377 52.4695C93.8595 52.9104 93.7706 53.3584 93.7563 53.7637C93.7599 53.7637 95.8221 53.8881 98.6666 53.7424Z" fill="#00B871"/>
<path d="M60.5226 80.2738C47.3492 74.0551 42.4355 62.1405 41.6888 60.1387C41.6106 59.9325 41.5608 59.7654 41.5075 59.5485C41.0204 57.5111 38.6061 45.5858 46.8017 37.4543C49.7635 34.5138 53.2692 32.5547 56.6257 31.2356C57.7848 30.7805 58.7555 29.9911 59.4595 28.9636C60.0461 28.1067 60.519 27.6587 60.519 27.6587C60.519 27.6587 46.7697 27.7689 37.9092 36.5654C29.7137 44.6969 32.1279 56.6223 32.615 58.6596C32.6684 58.8765 32.7181 59.0436 32.7964 59.2498C33.543 61.2516 38.4532 73.1663 51.6301 79.3849C58.855 82.7947 65.799 83.84 71.5804 83.8756C68.0532 83.1894 64.3306 82.0694 60.5226 80.2738Z" fill="#00B871"/>
<path d="M53.5644 94.0764L35.2924 104.178L38.784 82.7839L24 67.6337L44.4302 64.5119L53.5644 45.0488L62.7022 64.5119L83.1289 67.6337L68.3484 82.7839L71.8364 104.178L53.5644 94.0764Z" fill="#F3F3F1"/>
<path d="M52.4304 61.8453L56.9389 52.2346L53.5646 45.0488L45.1593 62.9546L52.4304 61.8453Z" fill="#D5DBE1"/>
<path d="M61.5644 91.4097L55.1537 94.9546L71.8363 104.178L70.567 96.3874L61.5644 91.4097Z" fill="#D5DBE1"/>
<path d="M43.6089 99.5804L46.784 80.1173L33.2267 66.2222L24 67.6337L38.784 82.784L35.2924 104.178L43.6089 99.5804Z" fill="#D5DBE1"/>
<path d="M71.8365 106.845C71.3921 106.845 70.9476 106.734 70.5459 106.51L53.5645 97.1237L36.5832 106.51C35.6872 107.005 34.5885 106.944 33.7565 106.357C32.921 105.767 32.4979 104.754 32.6614 103.748L35.9325 83.6837L22.0907 69.497C21.3939 68.7823 21.1521 67.7334 21.4685 66.7877C21.785 65.8383 22.6063 65.1521 23.5948 64.9992L42.617 62.0908L51.1503 43.9148C51.5912 42.9797 52.5299 42.3823 53.5645 42.3823C54.5992 42.3823 55.5379 42.9797 55.9787 43.9148L64.5085 62.0908L83.5308 64.9992C84.5192 65.1485 85.3405 65.8383 85.657 66.7877C85.9734 67.737 85.7316 68.7823 85.0347 69.497L71.193 83.6837L74.4641 103.748C74.6276 104.754 74.2045 105.767 73.369 106.357C72.9139 106.681 72.377 106.845 71.8365 106.845ZM29.5325 69.4863L40.6899 80.921C41.2836 81.5254 41.5503 82.3788 41.4152 83.2143L38.809 99.1859L52.2774 91.7441C53.081 91.2997 54.0552 91.2997 54.8587 91.7441L68.3236 99.1859L65.7174 83.2143C65.5823 82.3788 65.849 81.529 66.4427 80.921L77.6001 69.4863L62.3005 67.1468C61.4223 67.0117 60.6685 66.4499 60.2916 65.6463L53.5681 51.3245L46.8445 65.6463C46.4676 66.4499 45.7139 67.0152 44.8356 67.1468L29.5325 69.4863Z" fill="black"/>
<path d="M87.6941 84.0072L85.5288 79.1326C95.4666 74.7166 99.2603 61.145 100.626 53.5788C94.119 56.025 85.8772 55.609 84.7039 55.5343C83.2675 55.4454 82.1617 54.2259 82.2079 52.7894C82.4461 45.2623 91.8755 33.561 97.7279 27.001C66.279 28.6188 60.935 42.2508 60.8888 42.3966C60.5403 43.4703 59.5519 44.2099 58.4212 44.2383C57.2372 44.2917 56.2666 43.5806 55.8612 42.5281C54.0123 37.7103 54.4675 33.7672 55.4986 30.9121C51.0541 31.7335 44.5759 33.7139 39.7937 38.457C32.0603 46.1334 35.2355 58.1299 35.2675 58.2508L30.1297 59.6801C29.959 59.0686 26.055 44.5797 36.0355 34.6703C45.5572 25.2197 59.8968 24.9957 60.5012 24.9886C61.5643 25.0597 62.5848 25.6428 62.9972 26.6597C63.4061 27.6766 63.1501 28.8392 62.3572 29.593C62.2612 29.689 60.5546 31.4206 60.0746 34.4819C65.5999 28.8606 77.831 21.5112 104 21.5112C105.074 21.5112 106.044 22.1583 106.46 23.1468C106.876 24.1388 106.656 25.2837 105.902 26.0481C99.7972 32.2561 90.5066 43.4028 88.1137 50.2614C92.5688 50.1726 99.2568 49.4223 102.14 46.617C102.933 45.8454 104.117 45.6428 105.116 46.1086C106.119 46.5708 106.734 47.6054 106.659 48.7041C106.585 49.8348 104.619 76.4837 87.6941 84.0072Z" fill="black"/>
</svg>
