<svg width="128" height="128" viewBox="0 0 128 128" fill="none" xmlns="http://www.w3.org/2000/svg">
<path d="M41.0027 123.741C64.6294 116.917 84.3912 124.473 95.7761 121.184C107.161 117.895 129.184 104.445 114.059 52.0641C98.9334 -0.316335 64.5512 1.29078 52.025 4.90678C-6.61682 21.8419 -0.842601 135.826 41.0027 123.741Z" fill="#EFEFEF"/>
<path d="M31.8983 22.7905L36.9267 17.7622L39.4408 20.2764L34.4125 25.3047L31.8983 22.7905Z" fill="#A4AFC1"/>
<path d="M17.439 37.2422L22.4673 32.2139L24.9814 34.728L19.9531 39.7563L17.439 37.2422Z" fill="#A4AFC1"/>
<path d="M17.4421 19.6455L19.9563 17.1313L24.9846 22.1597L22.4704 24.6738L17.4421 19.6455Z" fill="#A4AFC1"/>
<path d="M107.556 117.945C104.615 117.945 102.222 115.552 102.222 112.612C102.222 109.671 104.615 107.278 107.556 107.278C110.496 107.278 112.889 109.671 112.889 112.612C112.889 115.552 110.496 117.945 107.556 117.945ZM107.556 110.834C106.578 110.834 105.778 111.634 105.778 112.612C105.778 113.589 106.578 114.389 107.556 114.389C108.533 114.389 109.333 113.589 109.333 112.612C109.333 111.634 108.533 110.834 107.556 110.834Z" fill="#A4AFC1"/>
<path d="M64.0001 32.8889C66.4547 32.8889 68.4446 30.899 68.4446 28.4444C68.4446 25.9898 66.4547 24 64.0001 24C61.5455 24 59.5557 25.9898 59.5557 28.4444C59.5557 30.899 61.5455 32.8889 64.0001 32.8889Z" fill="#F3F3F1"/>
<path d="M89.1412 43.303C91.5958 43.303 93.5857 41.3131 93.5857 38.8585C93.5857 36.4039 91.5958 34.4141 89.1412 34.4141C86.6866 34.4141 84.6968 36.4039 84.6968 38.8585C84.6968 41.3131 86.6866 43.303 89.1412 43.303Z" fill="#F3F3F1"/>
<path d="M85.3689 42.6313L76.5867 51.4136L85.3689 42.6313Z" fill="#2FDF84"/>
<path d="M99.5558 68.4446C102.01 68.4446 104 66.4547 104 64.0001C104 61.5455 102.01 59.5557 99.5558 59.5557C97.1012 59.5557 95.1113 61.5455 95.1113 64.0001C95.1113 66.4547 97.1012 68.4446 99.5558 68.4446Z" fill="#F3F3F1"/>
<path d="M89.1412 93.5857C91.5958 93.5857 93.5857 91.5958 93.5857 89.1412C93.5857 86.6866 91.5958 84.6968 89.1412 84.6968C86.6866 84.6968 84.6968 86.6866 84.6968 89.1412C84.6968 91.5958 86.6866 93.5857 89.1412 93.5857Z" fill="#F3F3F1"/>
<path d="M85.3688 85.3688L82.311 82.311L85.3688 85.3688Z" fill="#2FDF84"/>
<path d="M64.0001 104C66.4547 104 68.4446 102.01 68.4446 99.5558C68.4446 97.1012 66.4547 95.1113 64.0001 95.1113C61.5455 95.1113 59.5557 97.1012 59.5557 99.5558C59.5557 102.01 61.5455 104 64.0001 104Z" fill="#F3F3F1"/>
<path d="M38.8585 93.5857C41.3131 93.5857 43.303 91.5958 43.303 89.1412C43.303 86.6866 41.3131 84.6968 38.8585 84.6968C36.4039 84.6968 34.4141 86.6866 34.4141 89.1412C34.4141 91.5958 36.4039 93.5857 38.8585 93.5857Z" fill="#F3F3F1"/>
<path d="M45.8667 82.1333L42.6311 85.3689L45.8667 82.1333Z" fill="#2FDF84"/>
<path d="M28.4444 68.4446C30.899 68.4446 32.8889 66.4547 32.8889 64.0001C32.8889 61.5455 30.899 59.5557 28.4444 59.5557C25.9898 59.5557 24 61.5455 24 64.0001C24 66.4547 25.9898 68.4446 28.4444 68.4446Z" fill="#F3F3F1"/>
<path d="M38.8585 43.303C41.3131 43.303 43.303 41.3131 43.303 38.8585C43.303 36.4039 41.3131 34.4141 38.8585 34.4141C36.4039 34.4141 34.4141 36.4039 34.4141 38.8585C34.4141 41.3131 36.4039 43.303 38.8585 43.303Z" fill="#F3F3F1"/>
<path d="M51.4844 51.4847L42.6311 42.6313L51.4844 51.4847Z" fill="#2FDF84"/>
<path d="M64.0463 73.9233L54.7236 79.1109L56.4694 68.1811L48.8889 60.4727L59.3245 58.8442L63.9609 48.8887L68.6649 58.8122L79.1111 60.3696L71.5805 68.1313L73.4045 79.0469L64.0463 73.9233Z" fill="#2FDF84"/>
<path d="M62.528 74.766L63.5805 68.1811L56 60.4727L66.4356 58.8442L67.5485 56.4549L63.9609 48.8887L59.3245 58.8442L48.8889 60.4727L56.4694 68.1811L54.7236 79.1109L62.528 74.766Z" fill="#00B871"/>
<path d="M64 35.5557C60.0783 35.5557 56.8889 32.3664 56.8889 28.4446C56.8889 24.5228 60.0783 21.3335 64 21.3335C67.9218 21.3335 71.1111 24.5228 71.1111 28.4446C71.1111 32.3664 67.9218 35.5557 64 35.5557ZM64 26.6668C63.0223 26.6668 62.2223 27.4668 62.2223 28.4446C62.2223 29.4224 63.0223 30.2224 64 30.2224C64.9778 30.2224 65.7778 29.4224 65.7778 28.4446C65.7778 27.4668 64.9778 26.6668 64 26.6668Z" fill="black"/>
<path d="M61.3335 33.7778H66.6668V38.8623H61.3335V33.7778Z" fill="black"/>
<path d="M89.1412 45.9664C87.3208 45.9664 85.5004 45.273 84.1137 43.8864C81.3404 41.1166 81.3404 36.601 84.1137 33.8312C86.8835 31.0615 91.399 31.0615 94.1688 33.8312C96.9421 36.601 96.9421 41.1166 94.1688 43.8864C92.7857 45.2695 90.9617 45.9664 89.1412 45.9664ZM89.1412 37.081C88.6861 37.081 88.231 37.2552 87.8826 37.6001C87.1892 38.2935 87.1892 39.4206 87.8826 40.1139C88.5759 40.8072 89.703 40.8072 90.3964 40.1139C91.0897 39.4206 91.0897 38.2935 90.3964 37.6001C90.0515 37.2552 89.5964 37.081 89.1412 37.081Z" fill="black"/>
<path d="M74.6892 49.5303L83.4712 40.7483L87.2424 44.5196L78.4604 53.3015L74.6892 49.5303Z" fill="black"/>
<path d="M99.5555 71.1109C95.6337 71.1109 92.4443 67.9216 92.4443 63.9998C92.4443 60.078 95.6337 56.8887 99.5555 56.8887C103.477 56.8887 106.667 60.078 106.667 63.9998C106.667 67.9216 103.477 71.1109 99.5555 71.1109ZM99.5555 62.222C98.5777 62.222 97.7777 63.022 97.7777 63.9998C97.7777 64.9776 98.5777 65.7776 99.5555 65.7776C100.533 65.7776 101.333 64.9776 101.333 63.9998C101.333 63.022 100.533 62.222 99.5555 62.222Z" fill="black"/>
<path d="M87.0754 61.3335H94.2221V66.6668H87.0754V61.3335Z" fill="black"/>
<path d="M89.1412 96.2491C87.3208 96.2491 85.5004 95.5557 84.1137 94.1691C81.3404 91.3993 81.3404 86.8837 84.1137 84.114C86.8835 81.3442 91.399 81.3442 94.1688 84.114C96.9421 86.8837 96.9421 91.3993 94.1688 94.1691C92.7857 95.5557 90.9617 96.2491 89.1412 96.2491ZM89.1412 87.3637C88.6861 87.3637 88.231 87.5379 87.8826 87.8828C87.1892 88.5762 87.1892 89.7033 87.8826 90.3966C88.5759 91.0899 89.703 91.0899 90.3964 90.3966C91.0897 89.7033 91.0897 88.5762 90.3964 87.8828C90.0515 87.5379 89.5964 87.3637 89.1412 87.3637Z" fill="black"/>
<path d="M80.4089 84.1968L84.1802 80.4255L87.2349 83.4802L83.4636 87.2515L80.4089 84.1968Z" fill="black"/>
<path d="M64 106.667C60.0783 106.667 56.8889 103.477 56.8889 99.5555C56.8889 95.6337 60.0783 92.4443 64 92.4443C67.9218 92.4443 71.1111 95.6337 71.1111 99.5555C71.1111 103.477 67.9218 106.667 64 106.667ZM64 97.7777C63.0223 97.7777 62.2223 98.5777 62.2223 99.5555C62.2223 100.533 63.0223 101.333 64 101.333C64.9778 101.333 65.7778 100.533 65.7778 99.5555C65.7778 98.5777 64.9778 97.7777 64 97.7777Z" fill="black"/>
<path d="M61.3335 83.5557H66.6668V94.2223H61.3335V83.5557Z" fill="black"/>
<path d="M38.8588 96.2491C37.0383 96.2491 35.2179 95.5557 33.8312 94.1691C31.0579 91.3993 31.0579 86.8837 33.8312 84.114C36.601 81.3442 41.1166 81.3442 43.8863 84.114C46.6597 86.8837 46.6597 91.3993 43.8863 94.1691C42.4997 95.5557 40.6757 96.2491 38.8588 96.2491ZM38.8588 87.3637C38.4037 87.3637 37.9486 87.5379 37.6001 87.8828C36.9068 88.5762 36.9068 89.7033 37.6001 90.3966C38.2934 91.0899 39.4206 91.0899 40.1139 90.3966C40.8072 89.7033 40.8072 88.5762 40.1139 87.8828C39.769 87.5379 39.3139 87.3637 38.8588 87.3637Z" fill="black"/>
<path d="M40.7329 83.4775L43.9686 80.2418L47.7399 84.0131L44.5041 87.2488L40.7329 83.4775Z" fill="black"/>
<path d="M28.4446 71.1109C24.5228 71.1109 21.3335 67.9216 21.3335 63.9998C21.3335 60.078 24.5228 56.8887 28.4446 56.8887C32.3664 56.8887 35.5557 60.078 35.5557 63.9998C35.5557 67.9216 32.3664 71.1109 28.4446 71.1109ZM28.4446 62.222C27.4668 62.222 26.6668 63.022 26.6668 63.9998C26.6668 64.9776 27.4668 65.7776 28.4446 65.7776C29.4224 65.7776 30.2224 64.9776 30.2224 63.9998C30.2224 63.022 29.4224 62.222 28.4446 62.222Z" fill="black"/>
<path d="M33.7778 61.3335H40.8178V66.6668H33.7778V61.3335Z" fill="black"/>
<path d="M38.8588 45.9664C37.0383 45.9664 35.2179 45.273 33.8312 43.8864C31.0579 41.1166 31.0579 36.601 33.8312 33.8312C36.601 31.0615 41.1166 31.0615 43.8863 33.8312C46.6597 36.601 46.6597 41.1166 43.8863 43.8864C42.4997 45.2695 40.6757 45.9664 38.8588 45.9664ZM38.8588 37.081C38.4037 37.081 37.9486 37.2552 37.6001 37.6001C36.9068 38.2935 36.9068 39.4206 37.6001 40.1139C38.2934 40.8072 39.4206 40.8072 40.1139 40.1139C40.8072 39.4206 40.8072 38.2935 40.1139 37.6001C39.769 37.2552 39.3139 37.081 38.8588 37.081Z" fill="black"/>
<path d="M40.7361 44.5161L44.5073 40.7449L53.3622 49.5997L49.5909 53.371L40.7361 44.5161Z" fill="black"/>
<path d="M54.7272 81.7777C54.1903 81.7777 53.6534 81.6142 53.1983 81.2942C52.3627 80.7111 51.9325 79.6977 52.0925 78.6915L53.6249 69.0915L46.9903 62.3466C46.2898 61.6319 46.0409 60.5866 46.3574 59.6373C46.6703 58.6844 47.488 57.9946 48.48 57.8382L57.5112 56.4302L61.5467 47.7653C61.9805 46.8266 62.9227 46.2257 63.9538 46.2222H63.9645C64.9956 46.2222 65.9343 46.8159 66.3752 47.7475L70.4676 56.3875L79.5058 57.7315C80.4943 57.8808 81.3192 58.5671 81.6392 59.5164C81.9627 60.4622 81.7245 61.5111 81.0276 62.2293L74.4356 69.0239L76.0356 78.6133C76.2027 79.6195 75.7796 80.6328 74.9476 81.2231C74.1121 81.8168 73.0098 81.8773 72.1209 81.3902L64.0534 76.9706L56.0214 81.4435C55.6196 81.6675 55.1716 81.7777 54.7272 81.7777ZM54.4356 62.3039L58.3716 66.3075C58.9689 66.9119 59.2392 67.7617 59.104 68.6008L58.2258 74.1119L62.7449 71.5946C63.552 71.1466 64.5192 71.1431 65.3263 71.5839L69.8703 74.0728L68.9494 68.5688C68.8107 67.7368 69.0774 66.8799 69.6676 66.2719L73.5787 62.2364L68.2703 61.4471C67.392 61.3155 66.6347 60.7537 66.2543 59.9502L63.9823 55.1537L61.7423 59.9644C61.3689 60.7715 60.6152 61.3368 59.7369 61.4755L54.4356 62.3039Z" fill="black"/>
</svg>
