<svg width="128" height="128" viewBox="0 0 128 128" fill="none" xmlns="http://www.w3.org/2000/svg">
<path d="M29.7851 14.8162C54.3789 14.8162 71.2678 2.07666 83.1184 2.07666C94.9691 2.07666 119.858 8.88911 119.858 63.4064C119.858 117.924 86.3753 125.924 73.3407 125.924C12.3024 125.927 -13.7705 14.8162 29.7851 14.8162Z" fill="#EFEFEF"/>
<path d="M101.333 47.111C98.3929 47.111 96 44.7181 96 41.7777C96 38.8372 98.3929 36.4443 101.333 36.4443C104.274 36.4443 106.667 38.8372 106.667 41.7777C106.667 44.7181 104.274 47.111 101.333 47.111ZM101.333 39.9999C100.356 39.9999 99.5556 40.7999 99.5556 41.7777C99.5556 42.7554 100.356 43.5554 101.333 43.5554C102.311 43.5554 103.111 42.7554 103.111 41.7777C103.111 40.7999 102.311 39.9999 101.333 39.9999Z" fill="#A4AFC1"/>
<path d="M92.7644 56.4978L82.6667 46.8622V27.5556H72V36.6933L58.6667 24L24.5689 56.4978C24.2133 56.8178 24 57.28 24 57.7778C24 58.7733 24.7822 59.5556 25.7778 59.5556H34.6667V84.4444C34.6667 87.3884 37.056 89.7778 40 89.7778H79.1111C81.0738 89.7778 82.6667 88.1849 82.6667 86.2222V59.5556H91.5556C92.5511 59.5556 93.3333 58.7733 93.3333 57.7778C93.3333 57.28 93.12 56.8178 92.7644 56.4978Z" fill="#F3F3F1"/>
<path d="M72.0001 104H70.2223C68.2596 104 66.6667 102.407 66.6667 100.444V84.4442C66.6667 82.4816 68.2596 80.8887 70.2223 80.8887H72.0001C73.9628 80.8887 75.5556 82.4816 75.5556 84.4442V100.444C75.5556 102.4 73.9556 104 72.0001 104Z" fill="#2FDF84"/>
<path d="M75.449 82.0978C77.4401 80.8533 82.4534 77.2622 82.4534 72.6045C82.4534 68.4445 84.1956 66.7378 85.8312 66.7378C87.5023 66.7378 89.9912 69.2622 89.9912 74.24C89.9912 78.4 88.3201 80.8889 88.3201 80.8889H97.209C101.013 80.8889 104 84.0178 104 87.68C104 88.64 102.045 98.3111 102.009 98.3111C101.476 101.582 98.4534 104 95.1112 104H93.2979C83.769 104 78.4356 101.547 76.4445 100.409L75.5556 100.444L75.449 82.0978Z" fill="#2FDF84"/>
<path d="M80 36.6934V27.5557H72V29.0774L80 36.6934Z" fill="#D5DBE1"/>
<path d="M42.6668 84.4446V59.5557H34.6668V84.4446C34.6668 87.3886 37.0561 89.7779 40.0001 89.7779H48.0001C45.0561 89.7779 42.6668 87.3886 42.6668 84.4446Z" fill="#D5DBE1"/>
<path d="M32 57.7778C32 57.28 32.2133 56.8178 32.5689 56.4978L62.6702 27.8116L58.6667 24L24.5689 56.4978C24.2133 56.8178 24 57.28 24 57.7778C24 58.7733 24.7822 59.5556 25.7778 59.5556H33.7778C32.7822 59.5556 32 58.7733 32 57.7778Z" fill="#D5DBE1"/>
<path d="M84.4445 100.409L83.5556 100.444L83.449 82.0978C85.0739 81.0809 88.6685 78.4925 89.9521 75.0471C89.9663 74.7805 89.9912 74.5245 89.9912 74.24C89.9912 69.2622 87.5023 66.7378 85.8312 66.7378C84.1956 66.7378 82.4534 68.4445 82.4534 72.6045C82.4534 77.2622 77.4401 80.8533 75.449 82.0978L75.5556 100.444L76.4445 100.409C78.4356 101.547 83.769 104 93.2979 104H95.1112C95.6765 104 96.2205 103.908 96.7574 103.78C90.0623 103.168 86.0908 101.348 84.4445 100.409Z" fill="#00B871"/>
<path d="M72 106.667H70.2222C66.7911 106.667 64 103.876 64 100.444V84.4444C64 81.0133 66.7911 78.2222 70.2222 78.2222H72C75.4311 78.2222 78.2222 81.0133 78.2222 84.4444V100.444C78.2222 103.876 75.4311 106.667 72 106.667ZM70.2222 83.5555C69.7316 83.5555 69.3333 83.9537 69.3333 84.4444V100.444C69.3333 100.935 69.7316 101.333 70.2222 101.333H72C72.4836 101.333 72.8889 100.928 72.8889 100.444V84.4444C72.8889 83.9537 72.4907 83.5555 72 83.5555H70.2222Z" fill="black"/>
<path d="M95.111 106.667H93.2977C83.4914 106.667 77.6994 104.199 75.1217 102.727L77.767 98.0943C79.4701 99.0685 84.4017 101.333 93.2977 101.333H95.111C97.1875 101.333 99.0612 99.8152 99.3777 97.8809C99.3955 97.7814 99.4168 97.6783 99.4452 97.5858C99.7012 96.48 101.255 88.6329 101.337 87.584C101.333 85.408 99.4808 83.5556 97.2088 83.5556H88.3199C87.335 83.5556 86.4319 83.0152 85.9661 82.144C85.5039 81.2765 85.5572 80.224 86.1048 79.4027C86.6523 78.5814 87.3243 77.4436 87.3243 74.24C87.3243 71.0507 86.0692 69.5574 85.6177 69.376C85.7706 69.4756 85.1234 70.2969 85.1234 72.6045C85.1234 78.5636 79.3457 82.8089 76.8603 84.3627L74.0408 79.8365C76.8177 78.1049 79.7901 75.296 79.7901 72.608C79.7901 66.7129 82.8266 64.0747 85.831 64.0747C89.1839 64.0747 92.6577 67.8792 92.6577 74.2436C92.6577 75.7618 92.4692 77.0987 92.2026 78.2258H97.2088C102.425 78.2258 106.667 82.4676 106.667 87.6836C106.667 88.0143 106.667 88.5618 105.635 93.8667C105.195 96.1316 104.896 97.6783 104.597 98.7378L104.643 98.7449C103.904 103.26 99.8043 106.667 95.111 106.667Z" fill="black"/>
<path d="M54.2221 92.4444H39.9999C35.591 92.4444 31.9999 88.8533 31.9999 84.4444V62.2222H25.7777C23.3279 62.2222 21.3333 60.2275 21.3333 57.7777C21.3333 56.5368 21.8595 55.3457 22.7804 54.5173L56.8248 22.0693C57.8524 21.0915 59.4701 21.0915 60.5048 22.0693L69.3333 30.471V27.5555C69.3333 26.0835 70.5279 24.8888 71.9999 24.8888H82.6666C84.1386 24.8888 85.3333 26.0835 85.3333 27.5555V45.7173L94.6026 54.5635L90.9226 58.4248L80.8248 48.7893C80.2986 48.2844 79.9999 47.5875 79.9999 46.8586V30.2222H74.6666V36.6933C74.6666 37.7599 74.0301 38.7235 73.0524 39.143C72.071 39.5662 70.9333 39.3635 70.1617 38.6239L58.6666 27.6835L28.0248 56.8888H34.6666C36.1386 56.8888 37.3333 58.0835 37.3333 59.5555V84.4444C37.3333 85.9128 38.5315 87.1111 39.9999 87.1111H54.2221V92.4444ZM26.4355 58.4035L26.4106 58.4284C26.4177 58.4213 26.4248 58.4142 26.4355 58.4035Z" fill="black"/>
</svg>
