<svg width="128" height="128" viewBox="0 0 128 128" fill="none" xmlns="http://www.w3.org/2000/svg">
<path d="M14.816 29.7846C14.816 54.3784 2.07642 71.2673 2.07642 83.118C2.07642 94.9686 8.88886 119.857 63.4062 119.857C117.924 119.857 125.924 86.3748 125.924 73.3402C125.927 12.3019 14.816 -13.7709 14.816 29.7846Z" fill="#EFEFEF"/>
<path d="M113.778 19.5553C110.837 19.5553 108.444 17.1624 108.444 14.222C108.444 11.2816 110.837 8.88867 113.778 8.88867C116.718 8.88867 119.111 11.2816 119.111 14.222C119.111 17.1624 116.718 19.5553 113.778 19.5553ZM113.778 12.4442C112.796 12.4442 112 13.2407 112 14.222C112 15.2033 112.796 15.9998 113.778 15.9998C114.759 15.9998 115.555 15.2033 115.555 14.222C115.555 13.2407 114.759 12.4442 113.778 12.4442Z" fill="#A4AFC1"/>
<path d="M92.4445 79.1111C94.8991 79.1111 96.8889 77.1212 96.8889 74.6666C96.8889 72.212 94.8991 70.2222 92.4445 70.2222C89.9898 70.2222 88 72.212 88 74.6666C88 77.1212 89.9898 79.1111 92.4445 79.1111Z" fill="#F3F3F1"/>
<path d="M35.5555 79.1111C38.0101 79.1111 40 77.1212 40 74.6666C40 72.212 38.0101 70.2222 35.5555 70.2222C33.1009 70.2222 31.1111 72.212 31.1111 74.6666C31.1111 77.1212 33.1009 79.1111 35.5555 79.1111Z" fill="#F3F3F1"/>
<path d="M64 80.8887C68.4183 80.8887 72 77.307 72 72.8887C72 68.4704 68.4183 64.8887 64 64.8887C59.5817 64.8887 56 68.4704 56 72.8887C56 77.307 59.5817 80.8887 64 80.8887Z" fill="#F3F3F1"/>
<path d="M80.8889 106.667V98.6668C80.8889 94.7379 77.7066 91.5557 73.7778 91.5557H54.2222C50.2933 91.5557 47.1111 94.7379 47.1111 98.6668V106.667H80.8889Z" fill="#F3F3F1"/>
<path d="M47.1111 99.5556V95.1111C47.1111 91.1822 43.9289 88 40 88H31.1111C27.1822 88 24 91.1822 24 95.1111V99.5556H47.1111Z" fill="#F3F3F1"/>
<path d="M104 99.5556V95.1111C104 91.1822 100.818 88 96.8889 88H88C84.0711 88 80.8889 91.1822 80.8889 95.1111V99.5556H104Z" fill="#F3F3F1"/>
<path d="M86.2223 61.3333C90.1334 61.3333 93.3334 58.1333 93.3334 54.2222V24H34.6667V54.2222C34.6667 58.1333 37.8667 61.3333 41.7779 61.3333H86.2223Z" fill="#2FDF84"/>
<path d="M96 74.6666C96 73.9911 96.1742 73.3688 96.4445 72.7964C95.7333 71.2853 94.2222 70.2222 92.4444 70.2222C89.9911 70.2222 88 72.2133 88 74.6666C88 77.1199 89.9911 79.1111 92.4444 79.1111C94.2222 79.1111 95.7333 78.0479 96.4445 76.5368C96.1742 75.9644 96 75.3422 96 74.6666Z" fill="#D5DBE1"/>
<path d="M39.1111 74.6666C39.1111 73.9911 39.2853 73.3688 39.5555 72.7964C38.8444 71.2853 37.3333 70.2222 35.5555 70.2222C33.1022 70.2222 31.1111 72.2133 31.1111 74.6666C31.1111 77.1199 33.1022 79.1111 35.5555 79.1111C37.3333 79.1111 38.8444 78.0479 39.5555 76.5368C39.2853 75.9644 39.1111 75.3422 39.1111 74.6666Z" fill="#D5DBE1"/>
<path d="M64 72.8887C64 69.934 65.6178 67.3847 68 65.998C66.8196 65.3118 65.4649 64.8887 64 64.8887C59.5804 64.8887 56 68.4691 56 72.8887C56 77.3082 59.5804 80.8887 64 80.8887C65.4649 80.8887 66.8196 80.4656 68 79.7793C65.6178 78.3927 64 75.8433 64 72.8887Z" fill="#D5DBE1"/>
<path d="M62.2222 91.5557H54.2222C50.2933 91.5557 47.1111 94.7379 47.1111 98.6668V106.667H55.1111V98.6668C55.1111 94.7379 58.2933 91.5557 62.2222 91.5557Z" fill="#D5DBE1"/>
<path d="M39.1111 88H31.1111C27.1822 88 24 91.1822 24 95.1111V99.5556H32V95.1111C32 91.1822 35.1822 88 39.1111 88Z" fill="#D5DBE1"/>
<path d="M96 88H88C84.0711 88 80.8889 91.1822 80.8889 95.1111V99.5556H88.8889V95.1111C88.8889 91.1822 92.0711 88 96 88Z" fill="#D5DBE1"/>
<path d="M42.6667 54.2222V24H34.6667V54.2222C34.6667 58.1333 37.8667 61.3333 41.7779 61.3333H49.7779C45.8668 61.3333 42.6667 58.1333 42.6667 54.2222Z" fill="#00B871"/>
<path d="M27.5555 21.3335H100.444V26.6668H27.5555V21.3335Z" fill="black"/>
<path d="M86.2222 64.0002H78.2222V58.6668H86.2222C88.672 58.6668 90.6667 56.6722 90.6667 54.2224V26.6668H37.3333V54.2224C37.3333 56.6722 39.328 58.6668 41.7778 58.6668H49.7778V64.0002H41.7778C36.384 64.0002 32 59.6162 32 54.2224V24.0002C32 22.5282 33.1947 21.3335 34.6667 21.3335H93.3333C94.8053 21.3335 96 22.5282 96 24.0002V54.2224C96 59.6162 91.616 64.0002 86.2222 64.0002Z" fill="black"/>
<path d="M52.5511 52.5509L48.7822 48.7821L57.6711 39.8932C58.5209 39.0398 59.8364 38.8656 60.8782 39.4629L65.4044 42.0514L75.5236 32.7109L79.1431 36.6327L67.5876 47.2994C66.7342 48.0887 65.4684 48.2345 64.4551 47.6549L60.0036 45.1092L52.5511 52.5509Z" fill="black"/>
<path d="M80.0001 46.2222H74.6667V37.3333H65.7778V32H77.3334C78.8054 32 80.0001 33.1947 80.0001 34.6667V46.2222Z" fill="black"/>
<path d="M92.4444 81.7779C88.5226 81.7779 85.3333 78.5886 85.3333 74.6668C85.3333 70.745 88.5226 67.5557 92.4444 67.5557C96.3661 67.5557 99.5555 70.745 99.5555 74.6668C99.5555 78.5886 96.3661 81.7779 92.4444 81.7779ZM92.4444 72.889C91.463 72.889 90.6666 73.6854 90.6666 74.6668C90.6666 75.6481 91.463 76.4446 92.4444 76.4446C93.4257 76.4446 94.2221 75.6481 94.2221 74.6668C94.2221 73.6854 93.4257 72.889 92.4444 72.889Z" fill="black"/>
<path d="M106.667 99.5557H101.333V95.1113C101.333 92.6615 99.3386 90.6668 96.8888 90.6668H85.3333V85.3335H96.8888C102.283 85.3335 106.667 89.7175 106.667 95.1113V99.5557Z" fill="black"/>
<path d="M35.5556 81.7779C31.6338 81.7779 28.4445 78.5886 28.4445 74.6668C28.4445 70.745 31.6338 67.5557 35.5556 67.5557C39.4773 67.5557 42.6667 70.745 42.6667 74.6668C42.6667 78.5886 39.4773 81.7779 35.5556 81.7779ZM35.5556 72.889C34.5742 72.889 33.7778 73.6854 33.7778 74.6668C33.7778 75.6481 34.5742 76.4446 35.5556 76.4446C36.5369 76.4446 37.3333 75.6481 37.3333 74.6668C37.3333 73.6854 36.5369 72.889 35.5556 72.889Z" fill="black"/>
<path d="M26.6666 99.5557H21.3333V95.1113C21.3333 89.7175 25.7173 85.3335 31.111 85.3335H42.6666V90.6668H31.111C28.6613 90.6668 26.6666 92.6615 26.6666 95.1113V99.5557Z" fill="black"/>
<path d="M63.9999 83.5555C58.119 83.5555 53.3333 78.7697 53.3333 72.8888C53.3333 67.0079 58.119 62.2222 63.9999 62.2222C69.8808 62.2222 74.6666 67.0079 74.6666 72.8888C74.6666 78.7697 69.8808 83.5555 63.9999 83.5555ZM63.9999 67.5555C61.0595 67.5555 58.6666 69.9484 58.6666 72.8888C58.6666 75.8293 61.0595 78.2222 63.9999 78.2222C66.9404 78.2222 69.3332 75.8293 69.3332 72.8888C69.3332 69.9484 66.9404 67.5555 63.9999 67.5555Z" fill="black"/>
<path d="M83.5554 106.666H78.2221V98.6665C78.2221 96.2167 76.2274 94.222 73.7777 94.222H54.2221C51.7723 94.222 49.7777 96.2167 49.7777 98.6665V106.666H44.4443V98.6665C44.4443 93.2727 48.8283 88.8887 54.2221 88.8887H73.7777C79.1714 88.8887 83.5554 93.2727 83.5554 98.6665V106.666Z" fill="black"/>
<path d="M7.11108 101.333H120.889V106.667H7.11108V101.333Z" fill="black"/>
</svg>
