<svg width="24" height="24" viewBox="0 0 24 24" fill="none" xmlns="http://www.w3.org/2000/svg">
<path d="M9.69579 13.2481C9.62379 13.2481 8.03979 13.2481 7.3198 13.2481C6.9358 13.2481 6.8158 13.1041 6.8158 12.7441C6.8158 11.7841 6.8158 10.8001 6.8158 9.84007C6.8158 9.45607 6.9598 9.33607 7.3198 9.33607H9.69579C9.69579 9.26407 9.69579 7.87207 9.69579 7.22407C9.69579 6.26407 9.86379 5.35207 10.3438 4.51207C10.8478 3.64807 11.5678 3.07207 12.4798 2.73607C13.0798 2.52007 13.6798 2.42407 14.3278 2.42407H16.6798C17.0158 2.42407 17.1598 2.56807 17.1598 2.90407V5.64007C17.1598 5.97607 17.0158 6.12007 16.6798 6.12007C16.0318 6.12007 15.3838 6.12007 14.7358 6.14407C14.0878 6.14407 13.7518 6.45607 13.7518 7.12807C13.7278 7.84807 13.7518 8.54407 13.7518 9.28807H16.5358C16.9198 9.28807 17.0638 9.43207 17.0638 9.81607V12.7201C17.0638 13.1041 16.9438 13.2241 16.5358 13.2241C15.6718 13.2241 13.8238 13.2241 13.7518 13.2241V21.0481C13.7518 21.4561 13.6318 21.6001 13.1998 21.6001C12.1918 21.6001 11.2078 21.6001 10.1998 21.6001C9.83979 21.6001 9.69579 21.4561 9.69579 21.0961C9.69579 18.5761 9.69579 13.3201 9.69579 13.2481Z" fill="#A4AFC1"/>
</svg>
